<svg xmlns="http://www.w3.org/2000/svg" width="47.25" height="31.5" viewBox="0 0 47.25 31.5"><defs><style>.a{fill:#fff;}</style></defs><path class="a" d="M43.073,27.967h-2.83q.287-.759,1.354-3.671l.062-.185q.082-.205.205-.533t.185-.533l.246,1.128ZM13.46,26.634l-1.189-6.05a1.359,1.359,0,0,0-1.538-1.107h-5.5l-.041.267q6.378,1.62,8.265,6.891Zm3.671-7.157-3.322,8.982-.349-1.825a7.457,7.457,0,0,0-1.743-2.656,7.953,7.953,0,0,0-2.687-1.815L11.8,32.622h3.589l5.353-13.146H17.131Zm2.851,13.166h3.4l2.133-13.166h-3.4ZM35.732,19.8a8.311,8.311,0,0,0-3.056-.554,6.647,6.647,0,0,0-4.122,1.21,3.815,3.815,0,0,0-1.62,3.138q-.02,2.092,2.974,3.568a5.672,5.672,0,0,1,1.374.841,1.092,1.092,0,0,1,.39.8,1.026,1.026,0,0,1-.615.943,2.961,2.961,0,0,1-1.415.328,7.41,7.41,0,0,1-3.2-.677l-.451-.226-.472,2.953a9.087,9.087,0,0,0,3.794.7,6.771,6.771,0,0,0,4.276-1.21,4.032,4.032,0,0,0,1.651-3.281q0-2.174-2.871-3.568a9.91,9.91,0,0,1-1.456-.861.987.987,0,0,1-.451-.779.958.958,0,0,1,.5-.79A2.583,2.583,0,0,1,32.409,22a5.789,5.789,0,0,1,2.543.492l.308.164Zm8.716-.328H41.823a1.742,1.742,0,0,0-1.784,1.107L34.993,32.643h3.568l.718-1.969h4.348q.1.451.41,1.969H47.2Zm5.373-6.562v26.25A2.661,2.661,0,0,1,47.2,41.789H5.2A2.523,2.523,0,0,1,3.35,41.01a2.522,2.522,0,0,1-.779-1.846V12.914a2.523,2.523,0,0,1,.779-1.846A2.522,2.522,0,0,1,5.2,10.289h42a2.661,2.661,0,0,1,2.625,2.625Z" transform="translate(-2.571 -10.289)"/></svg>