<svg xmlns="http://www.w3.org/2000/svg" width="59.388" height="57.973" viewBox="0 0 59.388 57.973"><defs><style>.a{fill:#d9eae5;}</style></defs><path class="a" d="M12.2,18.824h25.1a1.682,1.682,0,0,0,0-3.358H12.2a1.682,1.682,0,0,0,0,3.358Zm20.149,5.833H12.2a1.682,1.682,0,0,0,0,3.358H32.345a1.682,1.682,0,0,0,0-3.358ZM28.1,33.847H12.2a1.682,1.682,0,0,0,0,3.358H28.1a1.682,1.682,0,0,0,0-3.358Zm-2.121,9.9H12.2a1.682,1.682,0,0,0,0,3.358H25.982a1.682,1.682,0,0,0,0-3.358Zm23.507-10.9V4.774A4.812,4.812,0,0,0,44.54,0H4.949A4.812,4.812,0,0,0,0,4.774V53.2a4.811,4.811,0,0,0,4.948,4.774H46.627a12.722,12.722,0,0,0,2.862-25.126ZM4.949,53.024V9.191H44.54V32.712A12.7,12.7,0,0,0,36.6,53.025H4.949Zm41.712,1.767a9.544,9.544,0,1,1,9.544-9.544A9.545,9.545,0,0,1,46.661,54.791Zm4.281-15.574-5.055,7.2-3.876-3.874L39.78,44.692l6.467,6.461L53.42,41Z"/></svg>