<svg xmlns="http://www.w3.org/2000/svg" width="54.704" height="72.112" viewBox="0 0 54.704 72.112"><defs><style>.a{fill:#d9eae5;}</style></defs><path class="a" d="M61.374,11.779A27.425,27.425,0,0,0,15.958,29.369a26.786,26.786,0,0,0,9.675,23.747,10.874,10.874,0,0,1,4,8.316V77.024H56.656V61.832a11.034,11.034,0,0,1,3.758-8.316,27.505,27.505,0,0,0,.959-41.738Zm-8,62.047H32.829V63.671H53.458ZM44.742,20.254c2.559,2.239,9.035,8.8,9.115,16.871v.8a11.594,11.594,0,0,1-2.319,7.036,10.554,10.554,0,0,1-6.8,4.238ZM41.544,49.2a10.474,10.474,0,0,1-5.837-3.038,11.434,11.434,0,0,1-3.2-7.916v-.8c0-4.078,1.679-8.476,4.957-12.713a34.461,34.461,0,0,1,4.078-4.638Zm16.791,1.919a14.312,14.312,0,0,0-4.8,9.355h-8.8V52.4A13.753,13.753,0,0,0,54.1,46.96a14.872,14.872,0,0,0,2.958-9.035v-.8C56.976,25.771,46.182,17.3,45.7,16.9l-2.719-2.159-2.719,2.239a36.221,36.221,0,0,0-5.437,5.677c-3.678,4.8-5.6,9.915-5.6,14.712v.8a14.632,14.632,0,0,0,4.158,10.155A13.593,13.593,0,0,0,41.544,52.4v8.076h-8.8a14.392,14.392,0,0,0-5.117-9.755,23.667,23.667,0,0,1-8.555-21.029A24.147,24.147,0,1,1,58.335,51.118Z" transform="translate(-15.789 -4.912)"/></svg>