<svg xmlns="http://www.w3.org/2000/svg" width="62.095" height="68.223" viewBox="0 0 62.095 68.223"><defs><style>.a{fill:#d9eae5;}</style></defs><g transform="translate(-6.675 -2.375)"><g transform="translate(6.675 2.375)"><path class="a" d="M67.941,39.974,64,33.806A11.937,11.937,0,0,1,62.2,29.574,22.5,22.5,0,0,0,40.616,11.5,18.19,18.19,0,1,0,12,33.447a17.557,17.557,0,0,0,6.024,3.945,25.632,25.632,0,0,0,6.311,13.34,10.955,10.955,0,0,1,2.582,7.315v7.172a3.773,3.773,0,0,0,3.514,3.8L48,70.6h.359a3.891,3.891,0,0,0,2.582-1,3.744,3.744,0,0,0,1.219-2.8V60.772a1.257,1.257,0,0,1,1.219-1.219h1.65a7.759,7.759,0,0,0,7.746-7.746V47.289h1.291a4.645,4.645,0,0,0,3.873-7.315ZM15.012,10.712a14.068,14.068,0,0,1,19.938,0,13.905,13.905,0,0,1,2.438,16.5,2.032,2.032,0,0,0-.143,1.578l2.08,6.24-6.24-2.08a2.393,2.393,0,0,0-1.578.143,14.051,14.051,0,0,1-16.5-22.376ZM64.57,42.842A.593.593,0,0,1,64,43.2H61.343a2.724,2.724,0,0,0-2.725,2.725v5.953a3.673,3.673,0,0,1-3.658,3.658H53.31A5.3,5.3,0,0,0,48,60.844v5.738l-17-1.506V58.19A14.769,14.769,0,0,0,27.348,48.15a21.532,21.532,0,0,1-4.877-9.4,18.154,18.154,0,0,0,10.041-1.578l5.881,1.936a3.737,3.737,0,0,0,3.945-.932,3.943,3.943,0,0,0,.932-3.945l-1.936-5.881a18.194,18.194,0,0,0,1.076-12.407A18.2,18.2,0,0,1,58.187,30.435a15.125,15.125,0,0,0,2.367,5.594L64.5,42.2A.555.555,0,0,1,64.57,42.842Z" transform="translate(-6.675 -2.375)"/><circle class="a" cx="2.694" cy="2.694" r="2.694" transform="translate(9.735 10.667)"/><circle class="a" cx="2.694" cy="2.694" r="2.694" transform="translate(21.324 10.667)"/><path class="a" d="M35.457,31.214a.4.4,0,0,0-.414-.414H23.714a.4.4,0,0,0-.414.414,6.087,6.087,0,0,0,6.078,6.078h0A6.043,6.043,0,0,0,35.457,31.214Z" transform="translate(-11.264 -10.331)"/></g></g></svg>